# xmcd CD database file
#
# Track frame offsets:
#	150
#	23925
#	61500
#	98775
#	128625
#	151950
#	178425
#	217950
#	258075
#
# Disc length: 3944 seconds
#
# Revision: 0
# Processed by: cddbd v1.5.1PL0 Copyright (c) Steve Scherf et al.
# Submitted via: CDex 1.51
#
DISCID=6f0f6609
DTITLE=Dick Berk - One by One
DYEAR=1995
DGENRE=Jazz
TTITLE0=One by One
TTITLE1=Vinnie P.
TTITLE2=Moanin'
TTITLE3=Lotus Blossom
TTITLE4=Guantanamo
TTITLE5=Lester Left Town
TTITLE6=Blues for Dogs
TTITLE7=Sail Away
TTITLE8=Revenge for Clarence
EXTD=YEAR: 1995
EXTT0=
EXTT1=
EXTT2=
EXTT3=
EXTT4=
EXTT5=
EXTT6=
EXTT7=
EXTT8=
PLAYORDER=
